<svg width="1000" height="500" viewBox="0 0 1000 500" fill="none" xmlns="http://www.w3.org/2000/svg">
<g filter="url(#filter0_d_2029_3)">
<path d="M159.291 299.16L212.931 205.74C212.931 205.38 212.751 205.2 212.391 205.2C177.951 236.88 154.491 260.04 142.011 274.68C140.331 276.6 136.131 280.86 129.411 287.46C122.811 294.06 118.791 297.9 117.351 298.98C116.031 300.06 113.631 300.9 110.151 301.5C109.431 301.5 109.071 301.08 109.071 300.24C109.071 299.4 113.811 293.28 123.291 281.88C132.891 270.36 143.391 257.64 154.791 243.72C166.191 229.68 176.631 214.74 186.111 198.9C195.711 183.06 200.511 170.82 200.511 162.18C200.511 157.14 197.931 154.62 192.771 154.62C184.011 154.62 173.991 158.16 162.711 165.24C151.551 172.32 141.471 180.6 132.471 190.08C123.591 199.56 116.031 209.22 109.791 219.06C103.551 228.78 100.431 236.34 100.431 241.74C100.431 245.1 102.411 246.78 106.371 246.78C110.331 246.78 114.891 245.46 120.051 242.82C125.331 240.18 130.311 236.94 134.991 233.1C144.471 225.3 152.211 218.22 158.211 211.86L161.811 207.9C162.291 207.54 162.711 207.36 163.071 207.36C163.431 207.36 163.611 207.72 163.611 208.44C148.611 225.36 133.971 237.48 119.691 244.8C113.931 247.68 108.831 249.12 104.391 249.12C98.991 249.12 96.291 246.12 96.291 240.12C96.291 235.32 97.971 229.26 101.331 221.94C104.811 214.62 109.671 207.06 115.911 199.26C122.271 191.34 129.291 183.96 136.971 177.12C144.771 170.16 153.531 164.46 163.251 160.02C173.091 155.46 182.691 153.18 192.051 153.18C200.331 153.18 204.471 157.26 204.471 165.42C204.471 171.18 202.491 178.56 198.531 187.56C194.571 196.56 189.771 205.44 184.131 214.2C172.971 231.6 162.591 246.24 152.991 258.12L147.051 265.32L228.051 186.48C231.291 183.48 233.091 181.98 233.451 181.98C234.291 181.98 234.711 182.52 234.711 183.6C234.711 184.56 233.571 186.24 231.291 188.64C211.611 219.84 194.691 248.22 180.531 273.78L179.991 275.76C188.991 265.08 202.551 250.92 220.671 233.28C238.791 215.64 254.091 201.3 266.571 190.26C279.051 179.22 291.291 169.74 303.291 161.82C315.291 153.9 324.351 149.94 330.471 149.94C332.271 149.94 333.171 150.9 333.171 152.82C333.171 153.3 332.751 153.78 331.911 154.26C331.191 154.74 328.791 156.48 324.711 159.48C312.831 167.88 306.831 172.02 306.711 171.9C306.351 171.9 306.171 171.78 306.171 171.54L306.531 170.46C306.531 169.98 306.231 169.74 305.631 169.74C300.951 169.74 291.771 175.08 278.091 185.76C264.531 196.44 250.191 209.04 235.071 223.56C220.071 238.08 205.611 252.66 191.691 267.3C177.891 281.94 168.051 293.22 162.171 301.14C161.091 302.46 160.131 303.12 159.291 303.12C158.451 303.12 158.031 302.82 158.031 302.22C158.031 301.74 158.451 300.72 159.291 299.16ZM271.878 266.58L272.058 268.92C252.738 281.76 240.978 288.18 236.778 288.18C236.058 288.18 235.698 287.76 235.698 286.92C235.698 284.4 236.658 280.8 238.578 276.12L239.478 273.6C239.478 273.36 239.238 273.24 238.758 273.24C238.398 273.24 234.918 275.64 228.318 280.44C221.838 285.24 217.578 287.64 215.538 287.64C213.618 287.64 212.658 285.84 212.658 282.24C212.658 272.28 218.298 262.56 229.578 253.08C240.978 243.6 254.658 238.86 270.618 238.86C272.058 238.86 272.778 239.46 272.778 240.66C272.778 241.86 267.138 248.88 255.858 261.72C244.578 274.44 238.938 282.12 238.938 284.76C238.938 285.24 239.298 285.48 240.018 285.48C240.738 285.48 243.798 283.92 249.198 280.8C254.598 277.68 259.698 274.56 264.498 271.44L271.878 266.58ZM243.258 266.76C245.298 265.2 249.258 261.06 255.138 254.34C261.018 247.62 263.958 243.72 263.958 242.64C263.958 242.16 263.478 241.92 262.518 241.92C256.998 241.92 250.578 244.5 243.258 249.66C235.938 254.7 229.698 260.46 224.538 266.94C219.498 273.42 216.978 278.64 216.978 282.6C216.978 283.32 217.338 283.68 218.058 283.68C218.778 283.68 219.918 283.26 221.478 282.42C223.158 281.46 225.138 280.2 227.418 278.64C229.818 276.96 231.858 275.52 233.538 274.32C239.298 270 242.538 267.48 243.258 266.76ZM369.064 169.56C365.464 169.56 352.204 181.08 329.284 204.12C306.364 227.16 288.964 246.9 277.084 263.34C288.124 254.94 306.244 238.5 331.444 214.02C356.764 189.42 369.424 174.78 369.424 170.1C369.424 169.86 369.304 169.68 369.064 169.56ZM372.484 166.32C373.564 166.32 374.104 166.98 374.104 168.3C374.104 174.06 361.204 189.42 335.404 214.38C309.724 239.22 289.324 256.92 274.204 267.48C268.924 275.04 266.284 280.5 266.284 283.86C266.284 284.94 266.524 285.48 267.004 285.48C271.924 285.48 280.744 281.52 293.464 273.6L304.264 266.58L304.444 268.92C301.444 270.84 298.024 273 294.184 275.4C280.264 284.04 270.604 288.36 265.204 288.36C263.764 288.36 263.044 287.22 263.044 284.94C263.044 277.98 267.904 267.72 277.624 254.16C287.344 240.48 298.444 227.28 310.924 214.56C323.524 201.72 335.824 190.5 347.824 180.9C359.944 171.18 368.164 166.32 372.484 166.32ZM300.826 284.94C304.066 284.94 312.046 280.26 324.766 270.9C337.486 261.42 346.606 252.36 352.126 243.72C352.126 242.88 351.406 242.46 349.966 242.46C346.606 242.46 340.906 244.98 332.866 250.02C324.826 255.06 317.326 261 310.366 267.84C303.526 274.56 300.106 279.96 300.106 284.04C300.106 284.64 300.346 284.94 300.826 284.94ZM325.666 289.08C324.226 289.08 323.506 288.3 323.506 286.74C323.506 285.06 323.866 283.38 324.586 281.7C325.426 280.02 326.626 277.92 328.186 275.4C330.226 272.16 331.546 269.7 332.146 268.02L331.966 267.84C313.846 281.04 302.686 287.64 298.486 287.64C297.166 287.64 296.506 286.44 296.506 284.04C296.506 277.8 298.726 271.8 303.166 266.04C307.726 260.28 313.186 255.6 319.546 252C325.906 248.28 332.266 245.34 338.626 243.18C344.986 241.02 350.326 239.94 354.646 239.94C378.766 213.42 397.606 191.4 411.166 173.88C413.926 170.28 417.046 168.42 420.526 168.3C421.606 168.3 422.146 168.78 422.146 169.74C422.146 170.7 414.166 180.24 398.206 198.36C382.246 216.48 366.286 234.96 350.326 253.8C334.366 272.64 326.386 283.44 326.386 286.2C326.386 286.68 326.686 286.92 327.286 286.92C327.886 286.92 330.286 285.9 334.486 283.86C338.686 281.82 342.466 279.78 345.826 277.74L363.466 266.58L363.646 268.92C343.726 282.36 331.066 289.08 325.666 289.08ZM418.166 261.18L419.606 262.8C414.086 266.16 409.586 268.98 406.106 271.26C402.626 273.54 399.986 274.68 398.186 274.68C395.546 274.68 394.226 273.54 394.226 271.26C394.226 269.58 395.126 266.28 396.926 261.36C398.846 256.32 400.166 252.78 400.886 250.74L400.346 250.2C399.866 250.2 399.326 250.44 398.726 250.92C386.606 260.64 378.746 267.18 375.146 270.54C371.666 273.9 368.246 277.5 364.886 281.34C361.646 285.18 359.846 287.28 359.486 287.64C359.246 288 359.066 288.24 358.946 288.36C358.586 288.72 357.386 288.9 355.346 288.9C353.186 288.9 352.106 288.72 352.106 288.36C352.346 288 353.846 286.32 356.606 283.32C363.326 276 369.386 268.98 374.786 262.26L369.566 265.32C364.046 268.68 360.026 271.2 357.506 272.88L356.786 270.9L368.126 263.7C372.206 261.06 375.686 258.3 378.566 255.42C381.566 252.54 383.606 250.2 384.686 248.4C385.766 246.6 386.726 245.1 387.566 243.9C388.406 242.7 389.186 242.1 389.906 242.1C390.626 242.1 391.766 242.52 393.326 243.36C393.326 244.56 392.366 246.66 390.446 249.66C388.526 252.66 386.606 255.36 384.686 257.76L381.806 261.18C381.806 261.42 381.866 261.54 381.986 261.54C382.346 261.54 382.766 261.36 383.246 261C383.726 260.52 385.706 258.84 389.186 255.96C392.786 252.96 395.906 250.44 398.546 248.4C401.186 246.24 404.186 244.2 407.546 242.28C411.026 240.36 413.546 239.4 415.106 239.4C416.666 239.4 417.446 239.76 417.446 240.48C417.446 241.44 414.506 243.48 408.626 246.6C407.306 247.32 405.266 250.8 402.506 257.04C399.866 263.16 398.546 267.66 398.546 270.54C398.546 271.14 399.086 271.44 400.166 271.44C401.366 271.44 403.646 270.36 407.006 268.2L418.166 261.18ZM447.276 247.5V247.32C444.876 248.52 442.236 251.4 439.356 255.96C436.476 260.4 434.796 264.24 434.316 267.48C442.956 258.6 447.276 251.94 447.276 247.5ZM408.936 285.12C413.496 285.12 420.876 280.32 431.076 270.72V269.82C431.076 266.1 432.876 261.54 436.476 256.14C440.196 250.62 443.556 247.08 446.556 245.52C446.196 245.16 445.716 244.98 445.116 244.98C440.676 244.98 433.296 250.08 422.976 260.28C412.776 270.48 407.676 278.4 407.676 284.04C407.676 284.76 408.096 285.12 408.936 285.12ZM403.356 282.6C403.356 273.6 408.516 264.66 418.836 255.78C429.276 246.78 437.916 242.28 444.756 242.28C448.116 242.28 449.796 243.78 449.796 246.78C449.796 255.3 445.236 263.82 436.116 272.34C436.836 272.58 437.556 272.7 438.276 272.7C441.636 272.7 446.496 270.6 452.856 266.4L453.756 268.2C446.076 273.36 440.256 275.94 436.296 275.94C434.736 275.94 433.596 275.64 432.876 275.04C428.196 278.88 423.276 282 418.116 284.4C412.956 286.8 409.176 288 406.776 288C404.496 288 403.356 286.2 403.356 282.6ZM450.583 270.36L450.043 268.2L455.983 264.42C464.983 258.42 470.623 254.22 472.903 251.82C475.183 249.3 476.563 247.74 477.043 247.14C480.163 243.18 481.903 240.96 482.263 240.48C483.703 240.96 484.423 242.4 484.423 244.8C482.023 248.28 478.783 252.48 474.703 257.4C470.623 262.2 467.263 266.22 464.623 269.46C461.983 272.58 460.663 274.38 460.663 274.86C460.663 275.34 460.723 275.58 460.843 275.58C461.083 275.58 461.983 274.98 463.543 273.78C465.223 272.46 469.663 269.28 476.863 264.24C491.383 254.16 500.623 247.8 504.583 245.16C508.543 242.4 511.063 241.02 512.143 241.02C513.343 241.02 513.943 242.22 513.943 244.62C513.943 246.9 512.143 250.38 508.543 255.06C504.943 259.74 500.983 264.06 496.663 268.02C485.143 278.58 479.383 284.4 479.383 285.48C479.383 285.6 479.623 285.66 480.103 285.66C481.543 285.66 489.643 280.92 504.403 271.44L511.783 266.58L511.963 268.92C492.643 281.76 480.883 288.18 476.683 288.18C475.963 288.18 475.603 287.82 475.603 287.1C475.603 282.66 478.363 277.44 483.883 271.44C489.523 265.32 495.103 259.86 500.623 255.06C506.143 250.14 508.903 246.9 508.903 245.34C508.903 245.1 508.783 244.98 508.543 244.98C505.063 246.66 496.963 252 484.243 261C471.643 269.88 464.263 275.1 462.103 276.66C456.463 280.86 453.463 283.08 453.103 283.32C452.863 283.44 452.263 284.04 451.303 285.12C449.143 287.4 447.163 288.54 445.363 288.54C442.483 288.3 440.983 288.12 440.863 288C440.743 287.88 440.683 287.76 440.683 287.64C440.683 287.52 441.703 286.38 443.743 284.22C445.663 282.18 447.583 280.14 449.503 278.1C455.863 271.02 460.243 265.98 462.643 262.98L450.583 270.36ZM574.756 222.12C566.836 233.04 560.596 243.66 556.036 253.98C551.476 264.3 549.196 273 549.196 280.08C549.196 287.04 551.896 290.52 557.296 290.52C564.616 290.52 579.316 283.08 601.396 268.2L613.456 260.64C614.296 260.16 615.196 259.92 616.156 259.92C617.116 259.92 617.596 260.04 617.596 260.28C617.596 260.52 617.416 260.76 617.056 261L604.096 268.92C602.656 269.88 599.296 272.16 594.016 275.76C588.736 279.24 584.836 281.76 582.316 283.32C579.796 284.88 576.496 286.8 572.416 289.08C564.736 293.52 558.436 295.74 553.516 295.74C545.836 295.74 541.996 289.98 541.996 278.46C541.996 270.9 544.276 261.84 548.836 251.28C553.396 240.72 559.756 229.98 567.916 219.06C576.196 208.14 585.436 197.94 595.636 188.46C605.956 178.98 617.476 171.24 630.196 165.24C643.036 159.12 655.516 156.06 667.636 156.06C674.236 156.06 677.536 158.58 677.536 163.62C677.536 169.62 673.516 177.84 665.476 188.28C657.436 198.6 648.076 207.84 637.396 216C626.836 224.16 618.376 228.24 612.016 228.24C609.136 228.24 607.696 227.4 607.696 225.72C607.696 224.52 608.956 222.6 611.476 219.96C614.116 217.2 616.216 215.82 617.776 215.82C618.256 215.82 618.496 216.06 618.496 216.54C618.496 216.9 617.716 217.8 616.156 219.24C614.716 220.56 613.996 221.46 613.996 221.94C613.996 222.3 614.116 222.48 614.356 222.48C617.956 222.48 624.676 218.76 634.516 211.32C644.356 203.88 653.596 195.42 662.236 185.94C670.876 176.34 675.196 169.08 675.196 164.16C675.196 160.2 672.196 158.22 666.196 158.22C655.876 158.22 644.896 161.34 633.256 167.58C621.736 173.7 611.116 181.62 601.396 191.34C591.676 200.94 582.796 211.2 574.756 222.12ZM661.761 266.58L661.941 268.92C642.621 281.76 630.861 288.18 626.661 288.18C625.941 288.18 625.581 287.76 625.581 286.92C625.581 284.4 626.541 280.8 628.461 276.12L629.361 273.6C629.361 273.36 629.121 273.24 628.641 273.24C628.281 273.24 624.801 275.64 618.201 280.44C611.721 285.24 607.461 287.64 605.421 287.64C603.501 287.64 602.541 285.84 602.541 282.24C602.541 272.28 608.181 262.56 619.461 253.08C630.861 243.6 644.541 238.86 660.501 238.86C661.941 238.86 662.661 239.46 662.661 240.66C662.661 241.86 657.021 248.88 645.741 261.72C634.461 274.44 628.821 282.12 628.821 284.76C628.821 285.24 629.181 285.48 629.901 285.48C630.621 285.48 633.681 283.92 639.081 280.8C644.481 277.68 649.581 274.56 654.381 271.44L661.761 266.58ZM633.141 266.76C635.181 265.2 639.141 261.06 645.021 254.34C650.901 247.62 653.841 243.72 653.841 242.64C653.841 242.16 653.361 241.92 652.401 241.92C646.881 241.92 640.461 244.5 633.141 249.66C625.821 254.7 619.581 260.46 614.421 266.94C609.381 273.42 606.861 278.64 606.861 282.6C606.861 283.32 607.221 283.68 607.941 283.68C608.661 283.68 609.801 283.26 611.361 282.42C613.041 281.46 615.021 280.2 617.301 278.64C619.701 276.96 621.741 275.52 623.421 274.32C629.181 270 632.421 267.48 633.141 266.76ZM688.207 268.74C669.367 281.58 657.367 288 652.207 288C650.887 288 650.227 287.58 650.227 286.74C650.227 283.38 654.547 275.76 663.187 263.88C671.827 252 681.787 239.4 693.067 226.08C681.547 225.84 674.467 225.72 671.827 225.72C669.187 225.72 667.867 225.06 667.867 223.74C667.867 223.26 668.407 223.02 669.487 223.02L695.227 223.56C709.867 206.4 717.967 197.82 719.527 197.82C722.767 197.82 724.387 198.36 724.387 199.44C724.387 200.4 717.727 208.5 704.407 223.74L734.647 224.28C736.207 224.28 736.987 224.52 736.987 225C736.987 225.36 736.747 225.6 736.267 225.72C735.547 226.08 729.607 226.26 718.447 226.26H702.247C694.447 235.14 688.747 241.62 685.147 245.7C681.547 249.66 676.867 255 671.107 261.72C660.427 274.2 655.087 281.64 655.087 284.04C655.087 284.52 655.507 284.76 656.347 284.76C657.307 284.76 660.367 283.38 665.527 280.62C670.687 277.74 674.587 275.34 677.227 273.42L688.027 266.76L688.207 268.74ZM727.003 241.74C727.003 241.38 726.763 241.2 726.283 241.2C723.043 241.2 718.003 244.02 711.163 249.66C704.323 255.3 698.383 261.48 693.343 268.2C699.343 266.28 706.423 261.96 714.583 255.24C722.863 248.52 727.003 244.02 727.003 241.74ZM685.423 284.22C685.423 285.78 686.023 286.56 687.223 286.56C688.663 286.56 691.903 285.6 696.943 283.68C701.983 281.64 706.123 279.66 709.363 277.74L727.003 266.58L727.183 268.92C714.583 277.32 705.163 282.66 698.923 284.94C692.803 287.22 688.723 288.36 686.683 288.36C683.323 288.36 681.643 286.26 681.643 282.06C681.643 276.42 683.683 270.78 687.763 265.14C691.843 259.5 696.583 254.88 701.983 251.28C707.503 247.68 712.783 244.74 717.823 242.46C722.983 240.18 726.883 239.04 729.523 239.04C732.163 239.04 733.483 239.94 733.483 241.74C733.483 246.18 728.203 251.58 717.643 257.94C707.203 264.3 698.503 268.5 691.543 270.54C687.463 276.42 685.423 280.98 685.423 284.22ZM781.682 261.18L783.122 262.8C777.602 266.16 773.102 268.98 769.622 271.26C766.142 273.54 763.502 274.68 761.702 274.68C759.062 274.68 757.742 273.54 757.742 271.26C757.742 269.58 758.642 266.28 760.442 261.36C762.362 256.32 763.682 252.78 764.402 250.74L763.862 250.2C763.382 250.2 762.842 250.44 762.242 250.92C750.122 260.64 742.262 267.18 738.662 270.54C735.182 273.9 731.762 277.5 728.402 281.34C725.162 285.18 723.362 287.28 723.002 287.64C722.762 288 722.582 288.24 722.462 288.36C722.102 288.72 720.902 288.9 718.862 288.9C716.702 288.9 715.622 288.72 715.622 288.36C715.862 288 717.362 286.32 720.122 283.32C726.842 276 732.902 268.98 738.302 262.26L733.082 265.32C727.562 268.68 723.542 271.2 721.022 272.88L720.302 270.9L731.642 263.7C735.722 261.06 739.202 258.3 742.082 255.42C745.082 252.54 747.122 250.2 748.202 248.4C749.282 246.6 750.242 245.1 751.082 243.9C751.922 242.7 752.702 242.1 753.422 242.1C754.142 242.1 755.282 242.52 756.842 243.36C756.842 244.56 755.882 246.66 753.962 249.66C752.042 252.66 750.122 255.36 748.202 257.76L745.322 261.18C745.322 261.42 745.382 261.54 745.502 261.54C745.862 261.54 746.282 261.36 746.762 261C747.242 260.52 749.222 258.84 752.702 255.96C756.302 252.96 759.422 250.44 762.062 248.4C764.702 246.24 767.702 244.2 771.062 242.28C774.542 240.36 777.062 239.4 778.622 239.4C780.182 239.4 780.962 239.76 780.962 240.48C780.962 241.44 778.022 243.48 772.142 246.6C770.822 247.32 768.782 250.8 766.022 257.04C763.382 263.16 762.062 267.66 762.062 270.54C762.062 271.14 762.602 271.44 763.682 271.44C764.882 271.44 767.162 270.36 770.522 268.2L781.682 261.18ZM808.661 225.36C808.661 227.16 809.681 228.06 811.721 228.06C813.761 228.06 815.621 227.16 817.301 225.36C818.981 223.44 819.821 222 819.821 221.04C819.821 220.08 819.461 219.24 818.741 218.52C818.141 217.8 817.181 217.44 815.861 217.44C814.661 217.44 813.161 218.28 811.361 219.96C809.561 221.64 808.661 223.44 808.661 225.36ZM766.181 284.94C766.181 285.42 766.481 285.66 767.081 285.66C769.241 285.66 779.981 279.3 799.301 266.58L799.481 268.92L792.101 273.78C787.181 277.02 781.781 280.26 775.901 283.5C770.021 286.62 766.121 288.18 764.201 288.18C762.761 288.18 762.041 287.04 762.041 284.76C762.041 282.36 765.641 276.3 772.841 266.58C780.161 256.74 787.901 247.68 796.061 239.4C796.901 238.44 797.801 237.96 798.761 237.96L802.901 238.32C803.861 238.44 804.341 238.74 804.341 239.22C804.341 239.58 803.981 240.24 803.261 241.2C798.461 246 791.381 253.74 782.021 264.42C772.781 275.1 767.501 281.94 766.181 284.94ZM797.399 270.36L796.859 268.2L802.799 264.42C811.799 258.42 817.439 254.22 819.719 251.82C821.999 249.3 823.379 247.74 823.859 247.14C826.979 243.18 828.719 240.96 829.079 240.48C830.519 240.96 831.239 242.4 831.239 244.8C828.839 248.28 825.599 252.48 821.519 257.4C817.439 262.2 814.079 266.22 811.439 269.46C808.799 272.58 807.479 274.38 807.479 274.86C807.479 275.34 807.539 275.58 807.659 275.58C807.899 275.58 808.799 274.98 810.359 273.78C812.039 272.46 816.479 269.28 823.679 264.24C838.199 254.16 847.439 247.8 851.399 245.16C855.359 242.4 857.879 241.02 858.959 241.02C860.159 241.02 860.759 242.22 860.759 244.62C860.759 246.9 858.959 250.38 855.359 255.06C851.759 259.74 847.799 264.06 843.479 268.02C831.959 278.58 826.199 284.4 826.199 285.48C826.199 285.6 826.439 285.66 826.919 285.66C828.359 285.66 836.459 280.92 851.219 271.44L858.599 266.58L858.779 268.92C839.459 281.76 827.699 288.18 823.499 288.18C822.779 288.18 822.419 287.82 822.419 287.1C822.419 282.66 825.179 277.44 830.699 271.44C836.339 265.32 841.919 259.86 847.439 255.06C852.959 250.14 855.719 246.9 855.719 245.34C855.719 245.1 855.599 244.98 855.359 244.98C851.879 246.66 843.779 252 831.059 261C818.459 269.88 811.079 275.1 808.919 276.66C803.279 280.86 800.279 283.08 799.919 283.32C799.679 283.44 799.079 284.04 798.119 285.12C795.959 287.4 793.979 288.54 792.179 288.54C789.299 288.3 787.799 288.12 787.679 288C787.559 287.88 787.499 287.76 787.499 287.64C787.499 287.52 788.519 286.38 790.559 284.22C792.479 282.18 794.399 280.14 796.319 278.1C802.679 271.02 807.059 265.98 809.459 262.98L797.399 270.36ZM883.282 266.76C885.322 265.2 889.282 261.06 895.162 254.34C901.042 247.62 903.982 243.72 903.982 242.64C903.982 242.16 903.502 241.92 902.542 241.92C894.022 241.92 884.302 246.96 873.382 257.04C862.462 267 857.002 275.52 857.002 282.6C857.002 283.32 857.362 283.68 858.082 283.68C858.802 283.68 859.942 283.26 861.502 282.42C863.182 281.46 865.162 280.2 867.442 278.64C869.842 276.96 871.822 275.52 873.382 274.32C879.262 270 882.562 267.48 883.282 266.76ZM813.802 349.92C815.242 349.92 825.682 338.28 845.122 315L854.842 303.48C854.842 303.24 854.722 303.12 854.482 303.12C846.322 309 838.702 315 831.622 321.12C824.542 327.36 819.742 332.58 817.222 336.78C814.582 340.98 813.262 345 813.262 348.84C813.262 349.56 813.442 349.92 813.802 349.92ZM877.882 285.66C879.922 285.66 888.382 280.92 903.262 271.44L910.822 266.76L911.002 268.92C903.322 274.2 896.122 278.64 889.402 282.24L873.022 290.7C863.542 303.54 851.722 317.28 837.562 331.92C823.282 346.68 814.882 354.06 812.362 354.06C809.842 354.06 808.582 353.22 808.582 351.54C808.582 342.78 815.182 332.64 828.382 321.12C833.182 316.92 839.302 312.06 846.742 306.54C854.182 301.14 858.742 297.78 860.422 296.46C863.182 293.1 866.062 289.62 869.062 286.02C875.542 278.46 879.022 274.32 879.502 273.6C879.502 273.36 879.262 273.24 878.782 273.24C878.422 273.24 874.942 275.64 868.342 280.44C861.862 285.24 857.602 287.64 855.562 287.64C853.642 287.64 852.682 285.84 852.682 282.24C852.682 272.28 858.322 262.56 869.602 253.08C881.002 243.6 894.682 238.86 910.642 238.86C911.962 238.86 912.622 239.58 912.622 241.02C890.662 268.62 879.082 283.5 877.882 285.66Z" fill="#0B0B0B"/>
</g>
<defs>
<filter id="filter0_d_2029_3" x="88.591" y="146.24" width="831.731" height="219.52" filterUnits="userSpaceOnUse" color-interpolation-filters="sRGB">
<feFlood flood-opacity="0" result="BackgroundImageFix"/>
<feColorMatrix in="SourceAlpha" type="matrix" values="0 0 0 0 0 0 0 0 0 0 0 0 0 0 0 0 0 0 127 0" result="hardAlpha"/>
<feOffset dy="4"/>
<feGaussianBlur stdDeviation="3.85"/>
<feComposite in2="hardAlpha" operator="out"/>
<feColorMatrix type="matrix" values="0 0 0 0 0 0 0 0 0 0 0 0 0 0 0 0 0 0 0.07 0"/>
<feBlend mode="normal" in2="BackgroundImageFix" result="effect1_dropShadow_2029_3"/>
<feBlend mode="normal" in="SourceGraphic" in2="effect1_dropShadow_2029_3" result="shape"/>
</filter>
</defs>
</svg>
