<svg width="602" height="602" viewBox="0 0 602 602" fill="none" xmlns="http://www.w3.org/2000/svg">
<path fill-rule="evenodd" clip-rule="evenodd" d="M60.5401 288.091C37.8052 300.634 17.9677 317.784 2.28608 338.281C0.777103 326.066 0 313.624 0 301C0 134.762 134.762 0 301 0C467.238 0 602 134.762 602 301C602 467.238 467.238 602 301 602C288.376 602 275.934 601.223 263.719 599.714C308.267 565.633 337 511.922 337 451.5C337 424.872 331.42 399.548 321.364 376.632C402.129 380.105 469.359 406.912 495.256 443.327C524.518 403.457 541.8 354.247 541.8 301C541.8 168.01 433.99 60.2 301 60.2C172.34 60.2 67.2478 161.103 60.5401 288.091ZM61.9075 329.825C50.3202 338.276 39.9859 348.343 31.2358 359.693C11.6494 385.099 0 416.939 0 451.5C0 534.619 67.3811 602 150.5 602C185.061 602 216.901 590.351 242.307 570.764C278.003 543.245 301 500.058 301 451.5C301 424.334 293.802 398.848 281.21 376.847C255.273 331.534 206.452 301 150.5 301C117.382 301 86.762 311.697 61.9075 329.825ZM407 228C407 284.885 360.885 331 304 331C247.115 331 201 284.885 201 228C201 171.115 247.115 125 304 125C360.885 125 407 171.115 407 228ZM167.14 383.296C167.14 395.062 157.602 404.601 145.835 404.601C134.069 404.601 124.531 395.062 124.531 383.296C124.531 371.53 134.069 361.992 145.835 361.992C157.602 361.992 167.14 371.53 167.14 383.296ZM150.646 415.597H114.222H113.535V415.609C103.605 415.971 95.6667 424.134 95.6667 434.152C95.6667 444.17 103.605 452.334 113.535 452.695V452.708H114.222H132.778V503.564H114.222H113.535V503.576C103.605 503.938 95.6667 512.102 95.6667 522.119C95.6667 532.137 103.605 540.301 113.535 540.662V540.675H114.222H132.778H150.646H152.021H169.889H188.444H189.132V540.662C199.061 540.301 207 532.137 207 522.119C207 512.101 199.061 503.938 189.132 503.576V503.564H188.444H169.889V434.839H169.876C169.885 434.611 169.889 434.382 169.889 434.152C169.889 423.904 161.581 415.597 151.333 415.597C151.103 415.597 150.874 415.601 150.646 415.609V415.597Z" fill="white"/>
</svg>
