<svg width="602" height="602" viewBox="0 0 602 602" fill="none" xmlns="http://www.w3.org/2000/svg">
<g clip-path="url(#clip0_25_71)">
<path d="M78.1377 434.848C27.8936 434.848 3.01074 410.204 3.01074 360.678V135.058C3.01074 85.7705 27.8936 60.8877 78.1377 60.8877H404.964C454.729 60.8877 480.091 85.7705 480.091 135.058V171.664H523.157C572.923 171.664 598.284 196.547 598.284 245.834V471.454C598.284 520.741 572.923 545.624 523.157 545.624H196.331C146.087 545.624 121.204 520.98 121.204 471.454V434.848H78.1377ZM78.6162 396.327H121.204V245.834C121.204 196.547 146.087 171.664 196.331 171.664H441.57V137.211C441.57 112.328 427.933 99.4082 404.246 99.4082H78.6162C54.6904 99.4082 41.5312 112.328 41.5312 137.211V358.764C41.5312 383.646 54.6904 396.327 78.6162 396.327ZM196.81 507.104H522.439C546.126 507.104 559.764 494.423 559.764 469.54V247.987C559.764 223.104 546.126 210.185 522.439 210.185H196.81C172.884 210.185 159.725 223.104 159.725 247.987V469.54C159.725 494.423 172.884 507.104 196.81 507.104ZM212.122 327.899L256.385 301.103L212.122 274.066C194.656 263.539 209.729 237.221 228.631 249.184L284.617 284.354C296.341 291.771 297.059 309.955 284.617 317.851L228.631 352.782C209.729 364.984 194.896 338.427 212.122 327.899ZM293.47 351.107C293.47 342.973 299.69 336.752 308.064 336.752H382.474C390.369 336.752 396.59 342.973 396.59 351.107C396.59 359.003 390.369 365.702 382.474 365.702H308.064C299.69 365.702 293.47 359.003 293.47 351.107Z" fill="white"/>
</g>
<defs>
<clipPath id="clip0_25_71">
<rect width="602" height="602" fill="white"/>
</clipPath>
</defs>
</svg>
