<svg width="602" height="602" viewBox="0 0 602 602" fill="none" xmlns="http://www.w3.org/2000/svg">
<path d="M67.5977 467.631C43.1592 453.667 30 439.433 30 401.03V188.334C30 160.405 40.2051 142.949 63.0322 130.058L252.9 22.0991C285.396 3.30029 316.816 3.30029 349.312 22.0991L539.448 130.058C562.007 142.949 572.212 160.405 572.212 188.334V401.03C572.212 439.433 559.321 453.667 534.614 467.631L323.53 587.407C308.223 596 293.989 596 278.95 587.407L67.5977 467.631ZM282.71 99.98V54.8628C278.95 56.4741 274.922 58.354 270.894 60.5024L93.916 161.479L282.71 268.364V225.664H319.502V268.364L508.564 161.479L331.587 60.5024C327.559 58.354 323.53 56.4741 319.502 54.8628V99.98H282.71ZM282.71 198.271V127.104H319.502V198.271H282.71ZM91.7676 432.182L280.024 539.335V337.382L235.444 359.672L219.062 326.64L260.957 305.693L70.8203 196.928V399.956L106.27 382.231L122.92 415.263L90.4248 431.645L91.7676 432.182ZM479.292 415.263L496.211 382.231L531.392 399.956V196.928L341.255 305.693L383.149 326.64L366.768 359.672L322.188 337.382V539.335L510.713 432.182L511.787 431.645L479.292 415.263ZM147.358 403.447L130.977 370.415L194.355 338.725L210.737 371.757L147.358 403.447ZM391.475 371.757L407.856 338.725L471.504 370.415L455.122 403.447L391.475 371.757Z" fill="white"/>
</svg>
