<svg width="602" height="602" viewBox="0 0 602 602" fill="none" xmlns="http://www.w3.org/2000/svg">
<path d="M82.6602 511.898C31.8789 511.898 6 486.508 6 436.215V166.684C6 116.391 31.6348 91 75.3359 91H518.451C569.232 91 595.111 116.391 595.111 166.684V436.215C595.111 486.508 569.477 511.898 525.775 511.898H82.6602ZM276.996 318.051C284.564 324.887 292.377 328.061 300.434 328.061C308.49 328.061 316.303 324.887 323.871 318.051L532.611 129.818C528.705 128.842 524.555 128.354 519.672 128.354H81.1953C76.5566 128.354 72.1621 128.842 68.2559 129.818L276.996 318.051ZM557.758 166.684C557.758 163.021 557.514 159.604 556.781 156.43L407.367 290.951L557.514 441.098C557.758 439.633 557.758 437.924 557.758 436.215V166.684ZM43.3535 435.971C43.3535 437.68 43.3535 439.389 43.5977 441.098L193.744 291.195L44.0859 156.674C43.5977 159.604 43.3535 163.021 43.3535 166.439V435.971ZM81.1953 474.545H519.672C526.264 474.545 532.123 473.568 537.006 471.615L380.512 315.121L345.111 347.104C331.195 359.799 316.059 365.658 300.434 365.658C284.809 365.658 269.672 359.799 255.756 347.104L220.355 315.121L64.1055 471.615C68.9883 473.568 74.8477 474.545 81.1953 474.545Z" fill="white"/>
</svg>
