<svg width="602" height="602" viewBox="0 0 602 602" fill="none" xmlns="http://www.w3.org/2000/svg">
<g clip-path="url(#clip0_14_162)">
<g clip-path="url(#clip1_14_162)">
<path d="M313.542 18.8125C154.162 18.8125 25.0833 147.891 25.0833 307.271C25.0833 434.92 107.658 542.728 222.314 580.93C236.736 583.463 242.129 574.81 242.129 567.235C242.129 560.387 241.778 537.686 241.778 513.506C169.312 526.85 150.575 495.847 144.806 479.644C141.545 471.341 127.499 445.731 115.208 438.883C105.124 433.465 90.7013 420.121 114.857 419.77C137.582 419.418 153.811 440.689 159.229 449.343C185.19 492.988 226.653 480.697 243.233 473.122C245.741 454.385 253.317 441.768 261.619 434.544C197.431 427.345 130.383 402.462 130.383 292.121C130.383 260.766 141.545 234.805 159.931 214.613C157.047 207.389 146.963 177.816 162.816 138.159C162.816 138.159 186.971 130.584 242.154 167.732C265.231 161.236 289.738 158 314.269 158C338.775 158 363.307 161.261 386.384 167.732C441.567 130.233 465.697 138.159 465.697 138.159C481.575 177.816 471.466 207.389 468.582 214.613C486.968 234.805 498.155 260.39 498.155 292.121C498.155 402.813 430.731 427.32 366.543 434.544C377.002 443.574 386.007 460.881 386.007 487.921C386.007 526.499 385.656 557.502 385.656 567.235C385.656 574.81 391.074 583.84 405.472 580.955C519.451 542.728 602 434.544 602 307.271C602 147.891 472.921 18.8125 313.542 18.8125Z" fill="white"/>
</g>
</g>
<defs>
<clipPath id="clip0_14_162">
<rect width="602" height="602" fill="white"/>
</clipPath>
<clipPath id="clip1_14_162">
<rect width="602" height="602" fill="white"/>
</clipPath>
</defs>
</svg>
